<?xml version="1.0" encoding="UTF-8" standalone="no"?>
<!-- Created with Inkscape (http://www.inkscape.org/) -->

<svg
   xmlns:dc="http://purl.org/dc/elements/1.1/"
   xmlns:cc="http://creativecommons.org/ns#"
   xmlns:rdf="http://www.w3.org/1999/02/22-rdf-syntax-ns#"
   xmlns:svg="http://www.w3.org/2000/svg"
   xmlns="http://www.w3.org/2000/svg"
   xmlns:xlink="http://www.w3.org/1999/xlink"
   version="1.1"
   width="640.36694"
   height="300"
   id="svg2">
  <defs
     id="defs4">
    <linearGradient
       id="linearGradient4099">
      <stop
         id="stop4101"
         style="stop-color:#bfd1de;stop-opacity:1"
         offset="0" />
      <stop
         id="stop4103"
         style="stop-color:#bfd1de;stop-opacity:0"
         offset="1" />
    </linearGradient>
    <linearGradient
       id="linearGradient4085">
      <stop
         id="stop4087"
         style="stop-color:#000000;stop-opacity:1"
         offset="0" />
      <stop
         id="stop4089"
         style="stop-color:#565f63;stop-opacity:1"
         offset="1" />
    </linearGradient>
    <style
       type="text/css"
       id="style6" />
    <linearGradient
       x1="572.88373"
       y1="345.02939"
       x2="542.60852"
       y2="13.83673"
       id="linearGradient3048"
       xlink:href="#linearGradient4085"
       gradientUnits="userSpaceOnUse"
       gradientTransform="translate(-7.0703125e-5,-1.9335938e-5)" />
    <linearGradient
       x1="572.88373"
       y1="345.02939"
       x2="542.60852"
       y2="13.83673"
       id="linearGradient3050"
       xlink:href="#linearGradient4099"
       gradientUnits="userSpaceOnUse" />
    <linearGradient
       x1="624.71539"
       y1="213.83673"
       x2="573.34576"
       y2="114.75416"
       id="linearGradient3052"
       xlink:href="#linearGradient4099"
       gradientUnits="userSpaceOnUse" />
    <linearGradient
       x1="572.88373"
       y1="345.02939"
       x2="542.60852"
       y2="13.83673"
       id="linearGradient3068"
       xlink:href="#linearGradient4085"
       gradientUnits="userSpaceOnUse"
       gradientTransform="translate(-7.0703125e-5,-1.9335938e-5)" />
    <linearGradient
       x1="572.88373"
       y1="345.02939"
       x2="542.60852"
       y2="13.83673"
       id="linearGradient3070"
       xlink:href="#linearGradient4099"
       gradientUnits="userSpaceOnUse" />
    <linearGradient
       x1="624.71539"
       y1="213.83673"
       x2="573.34576"
       y2="114.75416"
       id="linearGradient3072"
       xlink:href="#linearGradient4099"
       gradientUnits="userSpaceOnUse" />
    <linearGradient
       x1="572.88373"
       y1="345.02939"
       x2="542.60852"
       y2="13.83673"
       id="linearGradient3088"
       xlink:href="#linearGradient4085"
       gradientUnits="userSpaceOnUse"
       gradientTransform="translate(-7.0703125e-5,-1.9335938e-5)" />
    <linearGradient
       x1="572.88373"
       y1="345.02939"
       x2="542.60852"
       y2="13.83673"
       id="linearGradient3090"
       xlink:href="#linearGradient4099"
       gradientUnits="userSpaceOnUse" />
    <linearGradient
       x1="624.71539"
       y1="213.83673"
       x2="573.34576"
       y2="114.75416"
       id="linearGradient3092"
       xlink:href="#linearGradient4099"
       gradientUnits="userSpaceOnUse" />
    <linearGradient
       x1="624.71539"
       y1="213.83673"
       x2="573.34576"
       y2="114.75416"
       id="linearGradient3991"
       xlink:href="#linearGradient4099"
       gradientUnits="userSpaceOnUse"
       gradientTransform="matrix(0.21333333,0,0,0.21333333,4.1490624,144.33833)" />
    <linearGradient
       x1="572.88373"
       y1="345.02939"
       x2="542.60852"
       y2="13.83673"
       id="linearGradient3996"
       xlink:href="#linearGradient4099"
       gradientUnits="userSpaceOnUse"
       gradientTransform="matrix(0.21333333,0,0,0.21333333,4.1490624,144.33833)" />
    <linearGradient
       x1="572.88373"
       y1="345.02939"
       x2="542.60852"
       y2="13.83673"
       id="linearGradient3999"
       xlink:href="#linearGradient4085"
       gradientUnits="userSpaceOnUse"
       gradientTransform="matrix(0.21333333,0,0,0.21333333,4.1490473,144.33833)" />
    <linearGradient
       x1="624.71539"
       y1="213.83673"
       x2="573.34576"
       y2="114.75416"
       id="linearGradient4012"
       xlink:href="#linearGradient4099"
       gradientUnits="userSpaceOnUse"
       gradientTransform="matrix(0.58,0,0,0.58,-57.340102,74.629683)" />
    <linearGradient
       x1="572.88373"
       y1="345.02939"
       x2="542.60852"
       y2="13.83673"
       id="linearGradient4017"
       xlink:href="#linearGradient4099"
       gradientUnits="userSpaceOnUse"
       gradientTransform="matrix(0.58,0,0,0.58,-57.340102,74.629683)" />
    <linearGradient
       x1="572.88373"
       y1="345.02939"
       x2="542.60852"
       y2="13.83673"
       id="linearGradient4020"
       xlink:href="#linearGradient4085"
       gradientUnits="userSpaceOnUse"
       gradientTransform="matrix(0.58,0,0,0.58,-57.340143,74.629672)" />
    <linearGradient
       x1="624.71539"
       y1="213.83673"
       x2="573.34576"
       y2="114.75416"
       id="linearGradient4033"
       xlink:href="#linearGradient4099"
       gradientUnits="userSpaceOnUse"
       gradientTransform="translate(-13.761468,0.23718262)" />
    <linearGradient
       x1="572.88373"
       y1="345.02939"
       x2="542.60852"
       y2="13.83673"
       id="linearGradient4038"
       xlink:href="#linearGradient4099"
       gradientUnits="userSpaceOnUse"
       gradientTransform="translate(-13.761468,0.23718262)" />
    <linearGradient
       x1="572.88373"
       y1="345.02939"
       x2="542.60852"
       y2="13.83673"
       id="linearGradient4041"
       xlink:href="#linearGradient4085"
       gradientUnits="userSpaceOnUse"
       gradientTransform="translate(-13.761539,0.23716328)" />
    <linearGradient
       x1="572.88373"
       y1="345.02939"
       x2="542.60852"
       y2="13.83673"
       id="linearGradient4052"
       xlink:href="#linearGradient4085"
       gradientUnits="userSpaceOnUse"
       gradientTransform="matrix(0.58,0,0,0.58,-57.340143,74.629672)" />
    <linearGradient
       x1="572.88373"
       y1="345.02939"
       x2="542.60852"
       y2="13.83673"
       id="linearGradient4054"
       xlink:href="#linearGradient4099"
       gradientUnits="userSpaceOnUse"
       gradientTransform="matrix(0.58,0,0,0.58,-57.340102,74.629683)" />
    <linearGradient
       x1="624.71539"
       y1="213.83673"
       x2="573.34576"
       y2="114.75416"
       id="linearGradient4056"
       xlink:href="#linearGradient4099"
       gradientUnits="userSpaceOnUse"
       gradientTransform="matrix(0.58,0,0,0.58,-57.340102,74.629683)" />
    <linearGradient
       x1="572.88373"
       y1="345.02939"
       x2="542.60852"
       y2="13.83673"
       id="linearGradient4058"
       xlink:href="#linearGradient4085"
       gradientUnits="userSpaceOnUse"
       gradientTransform="translate(-13.761539,0.23716328)" />
    <linearGradient
       x1="572.88373"
       y1="345.02939"
       x2="542.60852"
       y2="13.83673"
       id="linearGradient4060"
       xlink:href="#linearGradient4099"
       gradientUnits="userSpaceOnUse"
       gradientTransform="translate(-13.761468,0.23718262)" />
    <linearGradient
       x1="624.71539"
       y1="213.83673"
       x2="573.34576"
       y2="114.75416"
       id="linearGradient4062"
       xlink:href="#linearGradient4099"
       gradientUnits="userSpaceOnUse"
       gradientTransform="translate(-13.761468,0.23718262)" />
    <linearGradient
       x1="572.88373"
       y1="345.02939"
       x2="542.60852"
       y2="13.83673"
       id="linearGradient4064"
       xlink:href="#linearGradient4085"
       gradientUnits="userSpaceOnUse"
       gradientTransform="matrix(0.21333333,0,0,0.21333333,4.1490473,144.33833)" />
    <linearGradient
       x1="572.88373"
       y1="345.02939"
       x2="542.60852"
       y2="13.83673"
       id="linearGradient4066"
       xlink:href="#linearGradient4099"
       gradientUnits="userSpaceOnUse"
       gradientTransform="matrix(0.21333333,0,0,0.21333333,4.1490624,144.33833)" />
    <linearGradient
       x1="624.71539"
       y1="213.83673"
       x2="573.34576"
       y2="114.75416"
       id="linearGradient4068"
       xlink:href="#linearGradient4099"
       gradientUnits="userSpaceOnUse"
       gradientTransform="matrix(0.21333333,0,0,0.21333333,4.1490624,144.33833)" />
  </defs>
  <metadata
     id="metadata7">
    <rdf:RDF>
      <cc:Work
         rdf:about="">
        <dc:format>image/svg+xml</dc:format>
        <dc:type
           rdf:resource="http://purl.org/dc/dcmitype/StillImage" />
        <dc:title></dc:title>
      </cc:Work>
    </rdf:RDF>
  </metadata>
  <g
     transform="translate(-101.30906,-27.362183)"
     id="layer1">
    <path
       d="m 124.50779,-68.462854 2.00559,0 c 0.5014,3.202538 1.12816,5.899417 1.96382,8.090625 0.79389,2.149075 1.7549,4.003175 2.79948,5.562304 1.08637,1.559134 2.71592,3.539652 4.88866,5.983693 2.17273,2.444041 3.88585,4.508835 5.22292,6.236521 4.0112,5.183057 6.0168,10.618949 6.0168,16.265528 0,5.815137 -2.42344,12.894436 -7.35387,21.237889 l -1.33707,0 c 0.62675,-1.474853 1.37885,-3.160396 2.21452,-5.056638 0.79388,-1.938381 1.5042,-3.666066 2.08916,-5.225195 0.54319,-1.559129 1.00281,-3.118263 1.33707,-4.677392 0.29248,-1.559129 0.45962,-3.076125 0.45962,-4.593116 0,-2.401903 -0.45962,-4.803806 -1.42064,-7.205713 -0.96101,-2.444043 -2.33986,-4.677394 -4.05298,-6.742189 -1.7549,-2.064794 -3.71872,-3.708203 -5.93324,-5.0145 -2.21451,-1.264158 -4.5126,-1.980518 -6.89425,-2.106932 l 0,47.700973 c 0,2.69687 -0.79388,5.14092 -2.46521,7.24785 -1.62955,2.10693 -3.7605,3.75034 -6.35107,4.88809 -2.54879,1.13774 -5.09757,1.68554 -7.64635,1.68554 -2.42344,0 -4.47082,-0.63208 -6.10037,-1.8541 -1.58777,-1.22202 -2.42344,-3.03398 -2.42344,-5.39375 0,-2.48618 0.83567,-4.80381 2.46522,-6.95288 1.62955,-2.10692996 3.71872,-3.79248 6.22572,-5.0145 2.507,-1.222021 4.93043,-1.8541 7.2703,-1.8541 3.2591,0 5.59897,0.632079 7.01961,1.93838 l 0,-43.065725 0,-22.080663 z"
       id="path25"
       style="fill:#131516;stroke:#131516;stroke-width:0.27168813" />
    <g
       transform="translate(0,3e-6)"
       id="g4043">
      <path
         d="m 674.31195,176.21539 a 71.559631,71.559631 0 1 1 -143.11926,0 71.559631,71.559631 0 1 1 143.11926,0 z"
         transform="matrix(2.0512821,0,0,2.0512821,-644.739,-184.10529)"
         id="path3866"
         style="fill:#000000;fill-opacity:1;fill-rule:nonzero;stroke:none" />
      <path
         d="m 441.67603,27.362183 0,299.999997 300,0 0,-120.625 c -0.13394,0.002 -0.27188,0 -0.40625,0 -16.21386,0 -29.34375,-13.16114 -29.34375,-29.375 0,-16.21386 13.12989,-29.34375 29.34375,-29.34375 0.13437,0 0.27231,-0.002 0.40625,0 l 0,-120.656247 -300,0 z"
         id="rect3759"
         style="fill:url(#linearGradient4058);fill-opacity:1;fill-rule:nonzero;stroke:none" />
      <path
         d="m 441.67603,27.362183 0,141.874997 c 56.98929,-26.12874 171.71101,-69.10948 300,-63.53125 l 0,-78.343747 -300,0 z"
         id="rect4107"
         style="opacity:0.06956524;fill:url(#linearGradient4060);fill-opacity:1;fill-rule:nonzero;stroke:none" />
      <path
         d="m 597.28592,89.247504 4.33176,0 c 1.08294,6.90699 2.43662,12.723406 4.24152,17.449236 1.71466,4.63496 3.79029,8.63374 6.04642,11.99635 2.34637,3.36262 5.86593,7.63405 10.55868,12.90517 4.69274,5.27112 8.39279,9.72431 11.28064,13.45045 8.66353,11.17842 12.99529,22.90213 12.99529,35.08024 0,12.54164 -5.23422,27.80973 -15.88314,45.80425 l -2.88784,0 c 1.35368,-3.18085 2.97809,-6.8161 4.78299,-10.90577 1.71466,-4.18055 3.24882,-7.90669 4.51225,-11.2693 1.17319,-3.36261 2.16589,-6.72523 2.88785,-10.08784 0.63171,-3.36261 0.99269,-6.63435 0.99269,-9.90608 0,-5.18024 -0.99269,-10.36048 -3.06833,-15.54073 -2.07564,-5.27112 -5.05373,-10.08784 -8.75377,-14.54103 -3.7903,-4.45319 -8.03182,-7.99757 -12.81481,-10.81489 -4.78299,-2.72644 -9.74647,-4.27143 -14.89044,-4.54407 l 0,102.8778 c 0,5.81641 -1.71466,11.08753 -5.32446,15.63161 -3.51956,4.54407 -8.12206,8.08845 -13.71726,10.54225 -5.50495,2.45379 -11.0099,3.63525 -16.51485,3.63525 -5.23422,0 -9.65623,-1.36322 -13.17578,-3.99878 -3.42932,-2.63556 -5.23422,-6.54346 -5.23422,-11.63283 0,-5.362 1.8049,-10.36048 5.32446,-14.99543 3.51956,-4.54408 8.03181,-8.17934 13.44652,-10.8149 5.41471,-2.63556 10.64892,-3.99878 15.70265,-3.99878 7.03912,0 12.09284,1.36322 15.16118,4.18055 l 0,-92.88085 0,-47.621876 z"
         id="path4095"
         style="fill:#ffffff;fill-opacity:1;stroke:none" />
      <path
         d="m 597.28592,86.49521 4.33176,0 c 1.08294,6.90699 2.43662,12.72341 4.24152,17.44924 1.71466,4.63496 3.79029,8.63374 6.04642,11.99635 2.34637,3.36262 5.86593,7.63405 10.55868,12.90517 4.69274,5.27112 8.39279,9.72431 11.28064,13.45045 8.66353,11.17842 12.99529,22.90213 12.99529,35.08024 0,12.54164 -5.23422,27.80973 -15.88314,45.80425 l -2.88784,0 c 1.35368,-3.18085 2.97809,-6.8161 4.78299,-10.90577 1.71466,-4.18055 3.24882,-7.90669 4.51225,-11.2693 1.17319,-3.36261 2.16589,-6.72523 2.88785,-10.08784 0.63171,-3.36261 0.99269,-6.63435 0.99269,-9.90608 0,-5.18024 -0.99269,-10.36048 -3.06833,-15.54073 -2.07564,-5.27112 -5.05373,-10.08784 -8.75377,-14.54103 -3.7903,-4.45319 -8.03182,-7.99757 -12.81481,-10.81489 -4.78299,-2.72644 -9.74647,-4.27143 -14.89044,-4.54407 l 0,102.8778 c 0,5.81641 -1.71466,11.08753 -5.32446,15.63161 -3.51956,4.54407 -8.12206,8.08845 -13.71726,10.54225 -5.50495,2.45379 -11.0099,3.63525 -16.51485,3.63525 -5.23422,0 -9.65623,-1.36322 -13.17578,-3.99878 -3.42932,-2.63556 -5.23422,-6.54346 -5.23422,-11.63283 0,-5.362 1.8049,-10.36048 5.32446,-14.99543 3.51956,-4.54408 8.03181,-8.17934 13.44652,-10.8149 5.41471,-2.63556 10.64892,-3.99878 15.70265,-3.99878 7.03912,0 12.09284,1.36322 15.16118,4.18055 l 0,-92.88085 0,-47.62188 z"
         id="path4081"
         style="fill:#dcdfe1;fill-opacity:1;stroke:none" />
      <path
         d="m 597.28592,86.49521 4.33176,0 c 1.08294,6.90699 2.43662,12.72341 4.24152,17.44924 1.71466,4.63496 3.79029,8.63374 6.04642,11.99635 2.34637,3.36262 5.86593,7.63405 10.55868,12.90517 4.69274,5.27112 8.39279,9.72431 11.28064,13.45045 8.66353,11.17842 12.99529,22.90213 12.99529,35.08024 0,12.54164 -5.23422,27.80973 -15.88314,45.80425 l -2.88784,0 c 1.35368,-3.18085 2.97809,-6.8161 4.78299,-10.90577 1.71466,-4.18055 3.24882,-7.90669 4.51225,-11.2693 1.17319,-3.36261 2.16589,-6.72523 2.88785,-10.08784 0.63171,-3.36261 0.99269,-6.63435 0.99269,-9.90608 0,-5.18024 -0.99269,-10.36048 -3.06833,-15.54073 -2.07564,-5.27112 -5.05373,-10.08784 -8.75377,-14.54103 -3.7903,-4.45319 -8.03182,-7.99757 -12.81481,-10.81489 -4.78299,-2.72644 -9.74647,-4.27143 -14.89044,-4.54407 l 0,102.8778 c 0,5.81641 -1.71466,11.08753 -5.32446,15.63161 -3.51956,4.54407 -8.12206,8.08845 -13.71726,10.54225 -5.50495,2.45379 -11.0099,3.63525 -16.51485,3.63525 -5.23422,0 -9.65623,-1.36322 -13.17578,-3.99878 -3.42932,-2.63556 -5.23422,-6.54346 -5.23422,-11.63283 0,-5.362 1.8049,-10.36048 5.32446,-14.99543 3.51956,-4.54408 8.03181,-8.17934 13.44652,-10.8149 5.41471,-2.63556 10.64892,-3.99878 15.70265,-3.99878 7.03912,0 12.09284,1.36322 15.16118,4.18055 l 0,-92.88085 0,-47.62188 z"
         id="path4097"
         style="fill:url(#linearGradient4062);fill-opacity:1;stroke:none" />
      <path
         d="m 446.70728,32.393433 0,0.5 0,288.968747 0,0.5 0.5,0 288.96875,0 0.5,0 0,-0.5 0,-111.77928 -1,0 0,111.27928 -287.96875,0 0,-287.968747 287.96875,0 0,111.165417 1,0 0,-111.665417 0,-0.5 -0.5,0 -288.96875,0 z m 289.6875,110.874997 c -15.05,2.13547 -26.8673,13.87884 -29.15625,28.90625 -2.86367,18.80066 10.35559,36.38633 29.15625,39.25 0.18348,-0.70778 0.13018,-0.88099 -0.34404,-1.32569 -17.97896,-3.02771 -30.59883,-19.67848 -27.84346,-37.76806 2.19676,-14.42223 13.61626,-25.472 27.98681,-27.73939 0.33574,-0.17932 0.27182,-0.50329 0.20069,-1.32311 z"
         id="path40"
         style="font-size:medium;font-style:normal;font-variant:normal;font-weight:normal;font-stretch:normal;text-indent:0;text-align:start;text-decoration:none;line-height:normal;letter-spacing:normal;word-spacing:normal;text-transform:none;direction:ltr;block-progression:tb;writing-mode:lr-tb;text-anchor:start;baseline-shift:baseline;opacity:0.2;color:#000000;fill:#ffffff;fill-opacity:1;stroke:none;stroke-width:0.86486489;marker:none;visibility:visible;display:inline;overflow:visible;enable-background:accumulate;font-family:Sans;-inkscape-font-specification:Sans" />
    </g>
    <g
       transform="translate(5.5045872,63.000003)"
       id="g4022">
      <path
         d="m 329.3578,169.79338 a 48.623852,48.623852 0 1 1 -97.2477,0 48.623852,48.623852 0 1 1 97.2477,0 z"
         transform="matrix(1.7358491,0,0,1.7358491,-193.49812,-117.3735)"
         id="path3864"
         style="fill:#000000;fill-opacity:1;fill-rule:nonzero;stroke:none" />
      <path
         d="m 206.81365,90.362183 0,173.999997 174,0 0,-69.9625 c -0.0777,0.001 -0.15769,0 -0.23563,0 -9.40404,0 -17.01937,-7.63346 -17.01937,-17.0375 0,-9.40404 7.61533,-17.01937 17.01937,-17.01937 0.0779,0 0.15794,-10e-4 0.23563,0 l 0,-69.980627 -174,0 z"
         id="path3056"
         style="fill:url(#linearGradient4052);fill-opacity:1;fill-rule:nonzero;stroke:none" />
      <path
         d="m 206.81365,90.362183 0,82.287497 c 33.05379,-15.15467 99.59238,-40.0835 174,-36.84812 l 0,-45.439377 -174,0 z"
         id="path3058"
         style="opacity:0.06956524;fill:url(#linearGradient4054);fill-opacity:1;fill-rule:nonzero;stroke:none" />
      <path
         d="m 297.06738,126.25567 2.51242,0 c 0.62811,4.00605 1.41324,7.37958 2.46009,10.12056 0.9945,2.68827 2.19836,5.00757 3.50692,6.95788 1.36089,1.95032 3.40224,4.42775 6.12403,7.485 2.72179,3.05725 4.86782,5.6401 6.54278,7.80126 5.02484,6.48348 7.53726,13.28324 7.53726,20.34654 0,7.27415 -3.03584,16.12964 -9.21222,26.56646 l -1.67494,0 c 0.78513,-1.84489 1.72729,-3.95333 2.77413,-6.32534 0.9945,-2.42472 1.88432,-4.58588 2.6171,-6.5362 0.68045,-1.95031 1.25622,-3.90063 1.67496,-5.85094 0.36639,-1.95032 0.57576,-3.84793 0.57576,-5.74553 0,-3.00454 -0.57576,-6.00908 -1.77963,-9.01362 -1.20387,-3.05725 -2.93117,-5.85095 -5.07719,-8.4338 -2.19837,-2.58285 -4.65846,-4.63859 -7.43259,-6.27264 -2.77413,-1.58133 -5.65295,-2.47743 -8.63646,-2.63556 l 0,59.66913 c 0,3.37351 -0.9945,6.43076 -3.08818,9.06633 -2.04135,2.63556 -4.7108,4.6913 -7.95601,6.11451 -3.19287,1.42319 -6.38574,2.10844 -9.57862,2.10844 -3.03584,0 -5.60061,-0.79067 -7.64195,-2.31929 -1.989,-1.52863 -3.03585,-3.79521 -3.03585,-6.74704 0,-3.10996 1.04685,-6.00908 3.08819,-8.69735 2.04135,-2.63557 4.65845,-4.74402 7.79898,-6.27264 3.14053,-1.52863 6.17638,-2.3193 9.10754,-2.3193 4.08269,0 7.01385,0.79067 8.79348,2.42472 l 0,-53.87089 0,-27.62069 z"
         id="path3060"
         style="fill:#ffffff;fill-opacity:1;stroke:none" />
      <path
         d="m 297.06738,124.65934 2.51242,0 c 0.62811,4.00605 1.41324,7.37958 2.46009,10.12056 0.9945,2.68828 2.19836,5.00757 3.50692,6.95788 1.36089,1.95032 3.40224,4.42775 6.12403,7.485 2.72179,3.05725 4.86782,5.6401 6.54278,7.80126 5.02484,6.48349 7.53726,13.28324 7.53726,20.34654 0,7.27415 -3.03584,16.12964 -9.21222,26.56647 l -1.67494,0 c 0.78513,-1.8449 1.72729,-3.95334 2.77413,-6.32535 0.9945,-2.42472 1.88432,-4.58588 2.6171,-6.53619 0.68045,-1.95032 1.25622,-3.90064 1.67496,-5.85095 0.36639,-1.95032 0.57576,-3.84792 0.57576,-5.74553 0,-3.00454 -0.57576,-6.00908 -1.77963,-9.01362 -1.20387,-3.05725 -2.93117,-5.85095 -5.07719,-8.4338 -2.19837,-2.58285 -4.65846,-4.63859 -7.43259,-6.27263 -2.77413,-1.58134 -5.65295,-2.47743 -8.63646,-2.63557 l 0,59.66913 c 0,3.37352 -0.9945,6.43077 -3.08818,9.06633 -2.04135,2.63556 -4.7108,4.6913 -7.95601,6.11451 -3.19287,1.4232 -6.38574,2.10844 -9.57862,2.10844 -3.03584,0 -5.60061,-0.79067 -7.64195,-2.31929 -1.989,-1.52862 -3.03585,-3.79521 -3.03585,-6.74704 0,-3.10996 1.04685,-6.00908 3.08819,-8.69735 2.04135,-2.63557 4.65845,-4.74402 7.79898,-6.27264 3.14053,-1.52863 6.17638,-2.3193 9.10754,-2.3193 4.08269,0 7.01385,0.79067 8.79348,2.42472 l 0,-53.87089 0,-27.62069 z"
         id="path3062"
         style="fill:#dcdfe1;fill-opacity:1;stroke:none" />
      <path
         d="m 297.06738,124.65934 2.51242,0 c 0.62811,4.00605 1.41324,7.37958 2.46009,10.12056 0.9945,2.68828 2.19836,5.00757 3.50692,6.95788 1.36089,1.95032 3.40224,4.42775 6.12403,7.485 2.72179,3.05725 4.86782,5.6401 6.54278,7.80126 5.02484,6.48349 7.53726,13.28324 7.53726,20.34654 0,7.27415 -3.03584,16.12964 -9.21222,26.56647 l -1.67494,0 c 0.78513,-1.8449 1.72729,-3.95334 2.77413,-6.32535 0.9945,-2.42472 1.88432,-4.58588 2.6171,-6.53619 0.68045,-1.95032 1.25622,-3.90064 1.67496,-5.85095 0.36639,-1.95032 0.57576,-3.84792 0.57576,-5.74553 0,-3.00454 -0.57576,-6.00908 -1.77963,-9.01362 -1.20387,-3.05725 -2.93117,-5.85095 -5.07719,-8.4338 -2.19837,-2.58285 -4.65846,-4.63859 -7.43259,-6.27263 -2.77413,-1.58134 -5.65295,-2.47743 -8.63646,-2.63557 l 0,59.66913 c 0,3.37352 -0.9945,6.43077 -3.08818,9.06633 -2.04135,2.63556 -4.7108,4.6913 -7.95601,6.11451 -3.19287,1.4232 -6.38574,2.10844 -9.57862,2.10844 -3.03584,0 -5.60061,-0.79067 -7.64195,-2.31929 -1.989,-1.52862 -3.03585,-3.79521 -3.03585,-6.74704 0,-3.10996 1.04685,-6.00908 3.08819,-8.69735 2.04135,-2.63557 4.65845,-4.74402 7.79898,-6.27264 3.14053,-1.52863 6.17638,-2.3193 9.10754,-2.3193 4.08269,0 7.01385,0.79067 8.79348,2.42472 l 0,-53.87089 0,-27.62069 z"
         id="path3064"
         style="fill:url(#linearGradient4056);fill-opacity:1;stroke:none" />
      <path
         d="m 209.73177,93.072183 0,0.29 0,166.999997 0,0.29 0.29,0 167.60188,0 0.29,0 0,-0.29 0,-64.02198 -0.58,0 0,63.73198 -167.02188,0 0,-166.419997 167.02188,0 0,64.684067 0.58,0 0,-64.974067 0,-0.29 -0.29,0 -167.60188,0 z m 168.01875,64.515627 c -8.729,1.23857 -15.58303,8.04973 -16.91062,16.76562 -1.66093,10.90439 6.00624,21.10407 16.91062,22.765 0.10642,-0.41051 0.0755,-0.51097 -0.19954,-0.7689 -10.4278,-1.75607 -17.74732,-11.41352 -16.14921,-21.90547 1.27412,-8.3649 7.89743,-14.77376 16.23235,-16.08885 0.19473,-0.104 0.15766,-0.29191 0.1164,-0.7674 z"
         id="path3066"
         style="font-size:medium;font-style:normal;font-variant:normal;font-weight:normal;font-stretch:normal;text-indent:0;text-align:start;text-decoration:none;line-height:normal;letter-spacing:normal;word-spacing:normal;text-transform:none;direction:ltr;block-progression:tb;writing-mode:lr-tb;text-anchor:start;baseline-shift:baseline;opacity:0.35080644;color:#000000;fill:#ffffff;fill-opacity:1;stroke:none;stroke-width:0.86486489;marker:none;visibility:visible;display:inline;overflow:visible;enable-background:accumulate;font-family:Sans;-inkscape-font-specification:Sans" />
    </g>
    <g
       transform="translate(0,113.23718)"
       id="g4001">
      <path
         d="m 158.93684,178.85826 a 28.057219,28.057219 0 1 1 -56.11444,0 28.057219,28.057219 0 1 1 56.11444,0 z"
         transform="matrix(1.1098266,0,0,1.1098266,-11.944626,-16.376658)"
         id="path3862"
         style="fill:#000000;fill-opacity:1;fill-rule:nonzero;stroke:none" />
      <path
         d="m 101.30906,150.125 0,64 64,0 0,-25.73334 c -0.0286,4.3e-4 -0.058,0 -0.0867,0 -3.45895,0 -6.26,-2.80771 -6.26,-6.26666 0,-3.45896 2.80105,-6.26 6.26,-6.26 0.0287,0 0.0581,-4.3e-4 0.0867,0 l 0,-25.74 -64,0 z"
         id="path3076"
         style="fill:url(#linearGradient4064);fill-opacity:1;fill-rule:nonzero;stroke:none" />
      <path
         d="m 101.30906,150.125 0,30.26666 c 12.15772,-5.57413 36.63168,-14.74335 64,-13.55333 l 0,-16.71333 -64,0 z"
         id="path3078"
         style="opacity:0.06956524;fill:url(#linearGradient4066);fill-opacity:1;fill-rule:nonzero;stroke:none" />
      <path
         d="m 134.50584,163.3272 0.92411,0 c 0.23102,1.47349 0.51981,2.71433 0.90485,3.7225 0.3658,0.98879 0.8086,1.84187 1.28991,2.55922 0.50056,0.71736 1.25139,1.6286 2.25251,2.75311 1.00112,1.1245 1.79047,2.07452 2.40654,2.86943 1.84822,2.38473 2.77233,4.88578 2.77233,7.48378 0,2.67555 -1.11663,5.93274 -3.3884,9.77157 l -0.61608,0 c 0.28879,-0.67858 0.63533,-1.4541 1.02038,-2.32656 0.36579,-0.89185 0.69308,-1.68676 0.96261,-2.40412 0.25028,-0.71735 0.46205,-1.43471 0.61607,-2.15207 0.13477,-0.71736 0.21178,-1.41533 0.21178,-2.1133 0,-1.10512 -0.21178,-2.21023 -0.65458,-3.31535 -0.4428,-1.12451 -1.07813,-2.15208 -1.86747,-3.10209 -0.8086,-0.95001 -1.71346,-1.70615 -2.73383,-2.30718 -1.02037,-0.58164 -2.07924,-0.91123 -3.17662,-0.9694 l 0,21.94727 c 0,1.24083 -0.3658,2.36534 -1.13589,3.33474 -0.75084,0.9694 -1.73271,1.72554 -2.92635,2.24901 -1.17439,0.52348 -2.34878,0.77552 -3.52317,0.77552 -1.11663,0 -2.05999,-0.29082 -2.81083,-0.85307 -0.73159,-0.56225 -1.11663,-1.39594 -1.11663,-2.48167 0,-1.14389 0.38504,-2.21024 1.13588,-3.19903 0.75084,-0.9694 1.71346,-1.74492 2.86859,-2.30717 1.15514,-0.56226 2.27177,-0.85308 3.3499,-0.85308 1.50168,0 2.57981,0.29082 3.23439,0.89185 l 0,-19.81458 0,-10.15933 z"
         id="path3080"
         style="fill:#ffffff;fill-opacity:1;stroke:none" />
      <path
         d="m 134.50584,162.74004 0.92411,0 c 0.23102,1.47349 0.51981,2.71433 0.90485,3.72251 0.3658,0.98879 0.8086,1.84186 1.28991,2.55922 0.50056,0.71736 1.25139,1.6286 2.25251,2.7531 1.00112,1.12451 1.79047,2.07452 2.40654,2.86943 1.84822,2.38473 2.77233,4.88579 2.77233,7.48379 0,2.67554 -1.11663,5.93274 -3.3884,9.77157 l -0.61608,0 c 0.28879,-0.67858 0.63533,-1.4541 1.02038,-2.32657 0.36579,-0.89185 0.69308,-1.68676 0.96261,-2.40411 0.25028,-0.71736 0.46205,-1.43472 0.61607,-2.15208 0.13477,-0.71735 0.21178,-1.41532 0.21178,-2.11329 0,-1.10512 -0.21178,-2.21024 -0.65458,-3.31536 -0.4428,-1.1245 -1.07813,-2.15207 -1.86747,-3.10208 -0.8086,-0.95002 -1.71346,-1.70615 -2.73383,-2.30718 -1.02037,-0.58164 -2.07924,-0.91124 -3.17662,-0.9694 l 0,21.94726 c 0,1.24083 -0.3658,2.36534 -1.13589,3.33474 -0.75084,0.96941 -1.73271,1.72554 -2.92635,2.24902 -1.17439,0.52347 -2.34878,0.77552 -3.52317,0.77552 -1.11663,0 -2.05999,-0.29082 -2.81083,-0.85308 -0.73159,-0.56225 -1.11663,-1.39593 -1.11663,-2.48167 0,-1.14389 0.38504,-2.21023 1.13588,-3.19902 0.75084,-0.9694 1.71346,-1.74493 2.86859,-2.30718 1.15514,-0.56225 2.27177,-0.85307 3.3499,-0.85307 1.50168,0 2.57981,0.29082 3.23439,0.89185 l 0,-19.81458 0,-10.15934 z"
         id="path3082"
         style="fill:#dcdfe1;fill-opacity:1;stroke:none" />
      <path
         d="m 134.50584,162.74004 0.92411,0 c 0.23102,1.47349 0.51981,2.71433 0.90485,3.72251 0.3658,0.98879 0.8086,1.84186 1.28991,2.55922 0.50056,0.71736 1.25139,1.6286 2.25251,2.7531 1.00112,1.12451 1.79047,2.07452 2.40654,2.86943 1.84822,2.38473 2.77233,4.88579 2.77233,7.48379 0,2.67554 -1.11663,5.93274 -3.3884,9.77157 l -0.61608,0 c 0.28879,-0.67858 0.63533,-1.4541 1.02038,-2.32657 0.36579,-0.89185 0.69308,-1.68676 0.96261,-2.40411 0.25028,-0.71736 0.46205,-1.43472 0.61607,-2.15208 0.13477,-0.71735 0.21178,-1.41532 0.21178,-2.11329 0,-1.10512 -0.21178,-2.21024 -0.65458,-3.31536 -0.4428,-1.1245 -1.07813,-2.15207 -1.86747,-3.10208 -0.8086,-0.95002 -1.71346,-1.70615 -2.73383,-2.30718 -1.02037,-0.58164 -2.07924,-0.91124 -3.17662,-0.9694 l 0,21.94726 c 0,1.24083 -0.3658,2.36534 -1.13589,3.33474 -0.75084,0.96941 -1.73271,1.72554 -2.92635,2.24902 -1.17439,0.52347 -2.34878,0.77552 -3.52317,0.77552 -1.11663,0 -2.05999,-0.29082 -2.81083,-0.85308 -0.73159,-0.56225 -1.11663,-1.39593 -1.11663,-2.48167 0,-1.14389 0.38504,-2.21023 1.13588,-3.19902 0.75084,-0.9694 1.71346,-1.74493 2.86859,-2.30718 1.15514,-0.56225 2.27177,-0.85307 3.3499,-0.85307 1.50168,0 2.57981,0.29082 3.23439,0.89185 l 0,-19.81458 0,-10.15934 z"
         id="path3084"
         style="fill:url(#linearGradient4068);fill-opacity:1;stroke:none" />
      <path
         d="m 103.13526,152.2286 0,0.10667 0,59.72947 0,0.10666 0.10667,0 60.67358,0 0.10667,0 0,-0.10666 0,-22.95932 -0.21333,0 0,22.85265 -60.46025,0 0,-59.51614 60.46025,0 0,22.68502 0.21333,0 0,-22.79168 0,-0.10667 -0.10667,0 -60.67358,0 z m 60.82692,22.62306 c -3.21067,0.45557 -5.73169,2.96082 -6.22,6.16667 -0.61092,4.01081 2.20919,7.76242 6.22,8.37333 0.0391,-0.15099 0.0278,-0.18794 -0.0734,-0.28281 -3.83551,-0.64591 -6.52775,-4.19808 -5.93993,-8.05719 0.46864,-3.07674 2.9048,-5.43402 5.97052,-5.91773 0.0716,-0.0383 0.058,-0.10737 0.0428,-0.28227 z"
         id="path3086"
         style="font-size:medium;font-style:normal;font-variant:normal;font-weight:normal;font-stretch:normal;text-indent:0;text-align:start;text-decoration:none;line-height:normal;letter-spacing:normal;word-spacing:normal;text-transform:none;direction:ltr;block-progression:tb;writing-mode:lr-tb;text-anchor:start;baseline-shift:baseline;color:#000000;fill:#ffffff;fill-opacity:1;stroke:none;stroke-width:4.6875;marker:none;visibility:visible;display:inline;overflow:visible;enable-background:accumulate;font-family:Sans;-inkscape-font-specification:Sans" />
    </g>
  </g>
</svg>
